<svg width="118" height="34" viewBox="0 0 118 34" fill="none" xmlns="http://www.w3.org/2000/svg">
<g clip-path="url(#clip0_112_2)">
<path d="M43.8397 10.28C44.3997 10.28 44.893 10.3067 45.3197 10.36C45.7597 10.4133 46.1663 10.5 46.5397 10.62C46.913 10.7267 47.293 10.88 47.6797 11.08C47.773 11.1333 47.8263 11.18 47.8397 11.22C47.8663 11.2467 47.8863 11.3467 47.8997 11.52L48.1397 13.9C48.1397 13.9267 48.1063 13.9533 48.0397 13.98C47.973 13.9933 47.9263 13.9733 47.8997 13.92C47.593 12.8133 47.0997 11.98 46.4197 11.42C45.753 10.86 44.873 10.58 43.7797 10.58C42.6463 10.58 41.653 10.8267 40.7997 11.32C39.9597 11.8133 39.2997 12.5133 38.8197 13.42C38.353 14.3267 38.1197 15.3933 38.1197 16.62C38.1197 17.5 38.2663 18.3267 38.5597 19.1C38.8663 19.86 39.2863 20.5333 39.8197 21.12C40.353 21.6933 40.9597 22.14 41.6397 22.46C42.333 22.78 43.0663 22.94 43.8397 22.94C44.9463 22.94 45.8397 22.6733 46.5197 22.14C47.1997 21.5933 47.713 20.78 48.0597 19.7C48.073 19.66 48.113 19.6467 48.1797 19.66C48.2597 19.6733 48.2997 19.6933 48.2997 19.72L48.0997 21.92C48.0863 22.08 48.0663 22.18 48.0397 22.22C48.013 22.26 47.9597 22.3067 47.8797 22.36C47.1863 22.7067 46.533 22.94 45.9197 23.06C45.3063 23.1933 44.613 23.26 43.8397 23.26C42.4263 23.26 41.173 22.9867 40.0797 22.44C38.9997 21.88 38.1463 21.1067 37.5197 20.12C36.9063 19.12 36.5997 17.9667 36.5997 16.66C36.5997 15.7 36.7797 14.8333 37.1397 14.06C37.4997 13.2733 38.0063 12.6 38.6597 12.04C39.313 11.48 40.0797 11.0467 40.9597 10.74C41.8397 10.4333 42.7997 10.28 43.8397 10.28ZM48.9306 23C48.8906 23 48.8706 22.96 48.8706 22.88C48.8706 22.8 48.8906 22.76 48.9306 22.76C49.4506 22.76 49.7906 22.6733 49.9506 22.5C50.1106 22.3133 50.1906 21.94 50.1906 21.38V11.04C50.1906 10.5733 50.1439 10.2333 50.0506 10.02C49.9573 9.79333 49.7906 9.68 49.5506 9.68C49.3506 9.68 49.0439 9.77333 48.6306 9.96C48.5906 9.98667 48.5506 9.96 48.5106 9.88C48.4706 9.8 48.4773 9.75333 48.5306 9.74L51.0906 8.52C51.1173 8.50667 51.1506 8.5 51.1906 8.5C51.2173 8.5 51.2506 8.52 51.2906 8.56C51.3439 8.58667 51.3706 8.62 51.3706 8.66V21.38C51.3706 21.94 51.4439 22.3133 51.5906 22.5C51.7373 22.6733 52.0773 22.76 52.6106 22.76C52.6506 22.76 52.6706 22.8 52.6706 22.88C52.6706 22.96 52.6506 23 52.6106 23C52.3839 23 52.1106 22.9933 51.7906 22.98C51.4706 22.9667 51.1306 22.96 50.7706 22.96C50.4239 22.96 50.0839 22.9667 49.7506 22.98C49.4306 22.9933 49.1573 23 48.9306 23ZM53.1468 23C53.1202 23 53.1068 22.96 53.1068 22.88C53.1068 22.8 53.1202 22.76 53.1468 22.76C53.6668 22.76 54.0068 22.6733 54.1668 22.5C54.3402 22.3133 54.4268 21.94 54.4268 21.38V17.64C54.4268 17.1733 54.3802 16.8333 54.2868 16.62C54.1935 16.3933 54.0202 16.28 53.7668 16.28C53.6602 16.28 53.5335 16.3067 53.3868 16.36C53.2402 16.4 53.0668 16.4667 52.8668 16.56C52.8135 16.5733 52.7668 16.5467 52.7268 16.48C52.7002 16.4 52.7068 16.3467 52.7468 16.32L55.3468 15.12C55.3868 15.1067 55.4135 15.1 55.4268 15.1C55.4535 15.1 55.4868 15.12 55.5268 15.16C55.5668 15.1867 55.5868 15.22 55.5868 15.26C55.5868 15.3667 55.5802 15.6267 55.5668 16.04C55.5535 16.4533 55.5468 16.98 55.5468 17.62V21.38C55.5468 21.94 55.6202 22.3133 55.7668 22.5C55.9268 22.6733 56.2735 22.76 56.8068 22.76C56.8468 22.76 56.8668 22.8 56.8668 22.88C56.8668 22.96 56.8468 23 56.8068 23C56.5668 23 56.2868 22.9933 55.9668 22.98C55.6602 22.9667 55.3335 22.96 54.9868 22.96C54.6402 22.96 54.3068 22.9667 53.9868 22.98C53.6802 22.9933 53.4002 23 53.1468 23ZM54.8268 12.76C54.5602 12.76 54.3468 12.6867 54.1868 12.54C54.0268 12.3933 53.9468 12.1867 53.9468 11.92C53.9468 11.6533 54.0268 11.4467 54.1868 11.3C54.3468 11.1533 54.5602 11.08 54.8268 11.08C55.0935 11.08 55.3002 11.1533 55.4468 11.3C55.5935 11.4467 55.6668 11.6533 55.6668 11.92C55.6668 12.48 55.3868 12.76 54.8268 12.76ZM60.9756 23.24C60.0689 23.24 59.3289 23.0467 58.7556 22.66C58.1823 22.26 57.7556 21.76 57.4756 21.16C57.2089 20.5467 57.0756 19.9267 57.0756 19.3C57.0756 18.6333 57.2023 18.04 57.4556 17.52C57.7223 17 58.0689 16.56 58.4956 16.2C58.9223 15.84 59.3956 15.5667 59.9156 15.38C60.4356 15.1933 60.9423 15.1 61.4356 15.1C61.8223 15.1 62.1889 15.1533 62.5356 15.26C62.8956 15.3533 63.1889 15.4933 63.4156 15.68C63.6556 15.8667 63.7756 16.08 63.7756 16.32C63.7756 16.4933 63.7156 16.6467 63.5956 16.78C63.4756 16.9 63.3023 16.96 63.0756 16.96C62.8623 16.96 62.6823 16.8933 62.5356 16.76C62.4023 16.6267 62.2889 16.4733 62.1956 16.3C62.0489 16.06 61.8756 15.8667 61.6756 15.72C61.4756 15.5733 61.1756 15.5 60.7756 15.5C60.0156 15.5 59.4289 15.8 59.0156 16.4C58.6023 16.9867 58.3956 17.7533 58.3956 18.7C58.3956 19.38 58.5089 20.0133 58.7356 20.6C58.9756 21.1867 59.3423 21.66 59.8356 22.02C60.3289 22.3667 60.9689 22.54 61.7556 22.54C62.1156 22.54 62.4689 22.4933 62.8156 22.4C63.1623 22.3067 63.4889 22.1333 63.7956 21.88C63.8223 21.8533 63.8556 21.8667 63.8956 21.92C63.9489 21.9733 63.9623 22.0133 63.9356 22.04C63.4689 22.4533 63.0023 22.76 62.5356 22.96C62.0689 23.1467 61.5489 23.24 60.9756 23.24ZM63.8982 23C63.8582 23 63.8382 22.96 63.8382 22.88C63.8382 22.8 63.8582 22.76 63.8982 22.76C64.4182 22.76 64.7582 22.6733 64.9182 22.5C65.0782 22.3133 65.1582 21.94 65.1582 21.38V11.04C65.1582 10.5733 65.1116 10.2333 65.0182 10.02C64.9249 9.79333 64.7582 9.68 64.5182 9.68C64.3182 9.68 64.0116 9.77333 63.5982 9.96C63.5449 9.98667 63.4982 9.96 63.4582 9.88C63.4316 9.8 63.4449 9.75333 63.4982 9.74L65.9982 8.52C66.0382 8.50667 66.0716 8.5 66.0982 8.5C66.1382 8.5 66.1782 8.52 66.2182 8.56C66.2582 8.58667 66.2782 8.62 66.2782 8.66V21.38C66.2782 21.94 66.3582 22.3133 66.5182 22.5C66.6782 22.6733 67.0182 22.76 67.5382 22.76C67.5782 22.76 67.5982 22.8 67.5982 22.88C67.5982 22.96 67.5782 23 67.5382 23C67.2982 23 67.0249 22.9933 66.7182 22.98C66.4116 22.9667 66.0782 22.96 65.7182 22.96C65.3716 22.96 65.0382 22.9667 64.7182 22.98C64.3982 22.9933 64.1249 23 63.8982 23ZM68.9182 23C68.8916 23 68.8782 22.96 68.8782 22.88C68.8782 22.8 68.8916 22.76 68.9182 22.76C69.3982 22.76 69.7049 22.7 69.8382 22.58C69.9716 22.4467 69.9382 22.2333 69.7382 21.94L67.1982 18.48L68.1382 17.8L70.7382 21.38C71.0982 21.9 71.4716 22.26 71.8582 22.46C72.2582 22.66 72.6516 22.76 73.0382 22.76C73.0782 22.76 73.0982 22.8 73.0982 22.88C73.0982 22.96 73.0782 23 73.0382 23C72.7982 23 72.5249 22.9933 72.2182 22.98C71.9116 22.9667 71.5782 22.96 71.2182 22.96C70.7116 22.96 70.2782 22.9667 69.9182 22.98C69.5582 22.9933 69.2249 23 68.9182 23ZM65.9182 19.66L65.8382 19.42L68.9582 16.9C69.4782 16.4867 69.6849 16.1533 69.5782 15.9C69.4849 15.6467 69.1116 15.52 68.4582 15.52C68.4182 15.52 68.3982 15.48 68.3982 15.4C68.3982 15.32 68.4182 15.28 68.4582 15.28C68.7782 15.28 69.0982 15.2867 69.4182 15.3C69.7516 15.3133 70.1916 15.32 70.7382 15.32C71.2449 15.32 71.6449 15.3133 71.9382 15.3C72.2449 15.2867 72.5316 15.28 72.7982 15.28C72.8382 15.28 72.8582 15.32 72.8582 15.4C72.8582 15.48 72.8382 15.52 72.7982 15.52C72.4916 15.52 72.1516 15.5733 71.7782 15.68C71.4049 15.7733 71.0116 15.9267 70.5982 16.14C70.1982 16.3533 69.7849 16.6267 69.3582 16.96L65.9182 19.66Z" fill="black"/>
<path d="M72.2825 23C72.2425 23 72.2225 22.96 72.2225 22.88C72.2225 22.8 72.2425 22.76 72.2825 22.76C72.6825 22.76 72.9825 22.7267 73.1825 22.66C73.3958 22.5933 73.5558 22.46 73.6625 22.26C73.7691 22.06 73.8558 21.7667 73.9225 21.38L75.5425 12.12C75.6491 11.56 75.6358 11.1933 75.5025 11.02C75.3691 10.8333 75.0091 10.74 74.4225 10.74C74.3825 10.74 74.3625 10.7 74.3625 10.62C74.3625 10.54 74.3825 10.5 74.4225 10.5H82.1625C82.2691 10.5 82.3025 10.56 82.2625 10.68C82.2358 10.92 82.1958 11.2067 82.1425 11.54C82.0891 11.86 82.0358 12.1733 81.9825 12.48C81.9425 12.7867 81.9091 13.0333 81.8825 13.22C81.8691 13.2733 81.8225 13.2933 81.7425 13.28C81.6625 13.2667 81.6291 13.24 81.6425 13.2C81.6825 12.4933 81.5358 11.9267 81.2025 11.5C80.8691 11.06 80.3958 10.84 79.7825 10.84H78.5425C78.1425 10.84 77.8358 10.8733 77.6225 10.94C77.4225 11.0067 77.2758 11.1333 77.1825 11.32C77.1025 11.4933 77.0225 11.7667 76.9425 12.14L75.3425 21.3C75.2758 21.7 75.2691 22.0067 75.3225 22.22C75.3758 22.42 75.5425 22.56 75.8225 22.64C76.1158 22.72 76.5691 22.76 77.1825 22.76C77.2091 22.76 77.2225 22.8 77.2225 22.88C77.2225 22.96 77.2091 23 77.1825 23C76.8625 23 76.4691 22.9933 76.0025 22.98C75.5358 22.9667 74.9758 22.96 74.3225 22.96C73.9491 22.96 73.5825 22.9667 73.2225 22.98C72.8758 22.9933 72.5625 23 72.2825 23ZM79.9625 18.66C79.9491 18.7133 79.9025 18.74 79.8225 18.74C79.7425 18.7267 79.7091 18.6933 79.7225 18.64C79.8291 18.0533 79.7758 17.6267 79.5625 17.36C79.3491 17.0933 78.9625 16.96 78.4025 16.96H75.3825L75.4425 16.5H78.5425C79.0891 16.5 79.4958 16.3867 79.7625 16.16C80.0425 15.9333 80.2291 15.5667 80.3225 15.06C80.3358 14.9933 80.3825 14.9667 80.4625 14.98C80.5425 14.9933 80.5758 15.0267 80.5625 15.08C80.5091 15.48 80.4558 15.7933 80.4025 16.02C80.3625 16.2467 80.3158 16.4867 80.2625 16.74C80.2091 17.0467 80.1625 17.3533 80.1225 17.66C80.0825 17.9667 80.0291 18.3 79.9625 18.66ZM81.0553 23.26C80.6153 23.26 80.2753 23.1 80.0353 22.78C79.8086 22.46 79.7419 21.9267 79.8353 21.18C79.9419 20.4733 80.1753 19.76 80.5353 19.04C80.8953 18.32 81.3286 17.6533 81.8353 17.04C82.3553 16.4267 82.9086 15.94 83.4953 15.58C84.0819 15.2067 84.6419 15.02 85.1753 15.02C85.4286 15.02 85.6819 15.0667 85.9353 15.16C86.1886 15.2533 86.4019 15.4067 86.5753 15.62C86.7619 15.82 86.8686 16.0933 86.8953 16.44L85.9353 15.86C86.1219 15.8333 86.3286 15.7267 86.5553 15.54C86.7819 15.34 86.9486 15.1133 87.0553 14.86C87.0819 14.82 87.1286 14.8133 87.1953 14.84C87.2753 14.8533 87.3086 14.8733 87.2953 14.9L86.1353 21.22C86.0019 21.9533 86.0886 22.32 86.3953 22.32C86.5419 22.32 86.7219 22.24 86.9353 22.08C87.1619 21.92 87.4019 21.7133 87.6553 21.46C87.6953 21.42 87.7419 21.4267 87.7953 21.48C87.8486 21.5333 87.8553 21.58 87.8153 21.62C87.3886 22.1133 86.9953 22.5 86.6353 22.78C86.2753 23.0467 85.9219 23.18 85.5753 23.18C85.2153 23.18 84.9819 23.0333 84.8753 22.74C84.7686 22.4333 84.7753 21.9267 84.8953 21.22L85.3753 18.42L85.7353 18.08C85.3753 19.12 84.9286 20.0333 84.3953 20.82C83.8753 21.5933 83.3219 22.1933 82.7353 22.62C82.1619 23.0467 81.6019 23.26 81.0553 23.26ZM81.9553 22.12C82.3153 22.12 82.6819 21.9867 83.0553 21.72C83.4286 21.44 83.7819 21.0733 84.1153 20.62C84.4619 20.1667 84.7553 19.6733 84.9953 19.14C85.2486 18.6067 85.4219 18.1 85.5153 17.62C85.6219 17.0867 85.5753 16.6533 85.3753 16.32C85.1886 15.9733 84.8619 15.8067 84.3953 15.82C83.9553 15.82 83.5153 16.0067 83.0753 16.38C82.6353 16.7533 82.2419 17.26 81.8953 17.9C81.5486 18.5267 81.3153 19.2467 81.1953 20.06C81.0886 20.78 81.1019 21.3067 81.2353 21.64C81.3686 21.96 81.6086 22.12 81.9553 22.12ZM89.3257 22.82L89.1257 22.8C89.2457 22.1733 89.3991 21.5067 89.5857 20.8C89.7724 20.0933 89.9857 19.4067 90.2257 18.74C90.4657 18.06 90.7257 17.4467 91.0057 16.9C91.2857 16.3533 91.5724 15.92 91.8657 15.6C92.1724 15.2667 92.4857 15.1 92.8057 15.1C92.9924 15.1 93.1791 15.1533 93.3657 15.26C93.5657 15.3533 93.7257 15.4867 93.8457 15.66C93.9657 15.8333 94.0057 16.0267 93.9657 16.24C93.9391 16.4133 93.8591 16.56 93.7257 16.68C93.6057 16.8 93.4457 16.86 93.2457 16.86C93.0457 16.86 92.8857 16.8067 92.7657 16.7C92.6591 16.5933 92.5591 16.4867 92.4657 16.38C92.3857 16.2733 92.2724 16.22 92.1257 16.22C91.9524 16.22 91.7591 16.3733 91.5457 16.68C91.3324 16.9867 91.1124 17.3867 90.8857 17.88C90.6591 18.3733 90.4391 18.92 90.2257 19.52C90.0257 20.1067 89.8457 20.6933 89.6857 21.28C89.5257 21.8533 89.4057 22.3667 89.3257 22.82ZM88.5457 23.16C88.3324 23.16 88.1924 23.1467 88.1257 23.12C88.0591 23.0933 88.0257 23.06 88.0257 23.02C88.0257 22.98 88.0591 22.8 88.1257 22.48C88.2057 22.16 88.2724 21.84 88.3257 21.52L89.0457 17.58C89.1257 17.14 89.1524 16.8067 89.1257 16.58C89.1124 16.3533 89.0657 16.1933 88.9857 16.1C88.9057 15.9933 88.8057 15.94 88.6857 15.94C88.5257 15.94 88.3391 16.02 88.1257 16.18C87.9257 16.3267 87.7191 16.5 87.5057 16.7C87.4657 16.74 87.4191 16.7333 87.3657 16.68C87.3124 16.6267 87.3057 16.58 87.3457 16.54C87.7724 16.0467 88.1657 15.6867 88.5257 15.46C88.8857 15.22 89.2391 15.1 89.5857 15.1C89.8391 15.1 90.0324 15.1733 90.1657 15.32C90.3124 15.4667 90.3924 15.7133 90.4057 16.06C90.4324 16.4067 90.3924 16.88 90.2857 17.48L89.3257 22.82C89.2857 23.0467 89.0257 23.16 88.5457 23.16ZM103.62 23.18C103.247 23.18 103.014 23.0267 102.92 22.72C102.827 22.4133 102.84 21.9133 102.96 21.22L103.54 18.04C103.66 17.32 103.674 16.7867 103.58 16.44C103.487 16.08 103.274 15.9 102.94 15.9C102.554 15.9 102.14 16.1667 101.7 16.7C101.274 17.22 100.86 18 100.46 19.04C100.074 20.0667 99.7469 21.3267 99.4803 22.82L99.2003 22.8C99.4669 21.2267 99.8269 19.8533 100.28 18.68C100.747 17.5067 101.274 16.6067 101.86 15.98C102.447 15.34 103.06 15.02 103.7 15.02C104.234 15.02 104.594 15.2267 104.78 15.64C104.98 16.0533 104.994 16.7267 104.82 17.66L104.18 21.22C104.114 21.62 104.107 21.9067 104.16 22.08C104.227 22.24 104.334 22.32 104.48 22.32C104.627 22.32 104.8 22.24 105 22.08C105.214 21.92 105.454 21.7133 105.72 21.46C105.774 21.4067 105.827 21.4067 105.88 21.46C105.934 21.5133 105.934 21.5667 105.88 21.62C105.454 22.1133 105.06 22.5 104.7 22.78C104.34 23.0467 103.98 23.18 103.62 23.18ZM94.2803 23.16C94.0669 23.16 93.9269 23.1467 93.8603 23.12C93.7936 23.0933 93.7603 23.06 93.7603 23.02C93.7603 22.98 93.7936 22.8133 93.8603 22.52C93.9403 22.2133 94.0069 21.9 94.0603 21.58L94.8803 17.06C95.0136 16.3133 94.9069 15.94 94.5603 15.94C94.4136 15.94 94.2269 16.02 94.0003 16.18C93.7736 16.3267 93.5203 16.54 93.2403 16.82C93.2003 16.8733 93.1536 16.8733 93.1003 16.82C93.0469 16.7533 93.0403 16.7 93.0803 16.66C93.5469 16.1267 93.9669 15.7333 94.3403 15.48C94.7269 15.2267 95.1003 15.1 95.4603 15.1C95.8203 15.1 96.0469 15.2467 96.1403 15.54C96.2469 15.8333 96.2403 16.3067 96.1203 16.96L95.0803 22.82C95.0269 23.0467 94.7603 23.16 94.2803 23.16ZM98.7003 23.16C98.4869 23.16 98.3469 23.1467 98.2803 23.12C98.2136 23.0933 98.1803 23.06 98.1803 23.02C98.1803 22.98 98.2136 22.8 98.2803 22.48C98.3603 22.16 98.4269 21.84 98.4803 21.52L99.1403 18.02C99.2469 17.3 99.2469 16.7667 99.1403 16.42C99.0469 16.0733 98.8403 15.9 98.5203 15.9C98.1336 15.9 97.7203 16.1733 97.2803 16.72C96.8403 17.2667 96.4269 18.0533 96.0403 19.08C95.6536 20.1067 95.3336 21.3533 95.0803 22.82L94.7803 22.8C95.0469 21.24 95.4069 19.88 95.8603 18.72C96.3269 17.5467 96.8536 16.64 97.4403 16C98.0269 15.3467 98.6469 15.02 99.3003 15.02C99.8069 15.02 100.16 15.2267 100.36 15.64C100.574 16.04 100.594 16.7067 100.42 17.64L99.4803 22.82C99.4536 23.0467 99.1936 23.16 98.7003 23.16ZM106.654 23.26C106.214 23.26 105.874 23.1 105.634 22.78C105.408 22.46 105.341 21.9267 105.434 21.18C105.541 20.4733 105.774 19.76 106.134 19.04C106.494 18.32 106.928 17.6533 107.434 17.04C107.954 16.4267 108.508 15.94 109.094 15.58C109.681 15.2067 110.241 15.02 110.774 15.02C111.028 15.02 111.281 15.0667 111.534 15.16C111.788 15.2533 112.001 15.4067 112.174 15.62C112.361 15.82 112.468 16.0933 112.494 16.44L111.534 15.86C111.721 15.8333 111.928 15.7267 112.154 15.54C112.381 15.34 112.548 15.1133 112.654 14.86C112.681 14.82 112.728 14.8133 112.794 14.84C112.874 14.8533 112.908 14.8733 112.894 14.9L111.734 21.22C111.601 21.9533 111.688 22.32 111.994 22.32C112.141 22.32 112.321 22.24 112.534 22.08C112.761 21.92 113.001 21.7133 113.254 21.46C113.294 21.42 113.341 21.4267 113.394 21.48C113.448 21.5333 113.454 21.58 113.414 21.62C112.988 22.1133 112.594 22.5 112.234 22.78C111.874 23.0467 111.521 23.18 111.174 23.18C110.814 23.18 110.581 23.0333 110.474 22.74C110.368 22.4333 110.374 21.9267 110.494 21.22L110.974 18.42L111.334 18.08C110.974 19.12 110.528 20.0333 109.994 20.82C109.474 21.5933 108.921 22.1933 108.334 22.62C107.761 23.0467 107.201 23.26 106.654 23.26ZM107.554 22.12C107.914 22.12 108.281 21.9867 108.654 21.72C109.028 21.44 109.381 21.0733 109.714 20.62C110.061 20.1667 110.354 19.6733 110.594 19.14C110.848 18.6067 111.021 18.1 111.114 17.62C111.221 17.0867 111.174 16.6533 110.974 16.32C110.788 15.9733 110.461 15.8067 109.994 15.82C109.554 15.82 109.114 16.0067 108.674 16.38C108.234 16.7533 107.841 17.26 107.494 17.9C107.148 18.5267 106.914 19.2467 106.794 20.06C106.688 20.78 106.701 21.3067 106.834 21.64C106.968 21.96 107.208 22.12 107.554 22.12Z" fill="#2A5C45"/>
</g>
<defs>
<clipPath id="clip0_112_2">
<rect width="118" height="34" fill="white"/>
</clipPath>
</defs>
</svg>
